# xmcd
#
# Track frame offsets: 
#        182
#        9595
#        25617
#        38750
#        55365
#        64727
#        80655
#        106565
#        118892
#        134305
#
# Disc length: 2032 seconds
#
# Revision: 3
# Processed by: cddbd v1.5.1PL0 Copyright (c) Steve Scherf et al.
# Submitted via: ExactAudioCopy v0.95a3
#
DISCID=7b07ee0a
DTITLE=Blues Brothers - Made In America
DYEAR=1980
DGENRE=Blues
TTITLE0=Soul Finger
TTITLE1=Who's Making Love
TTITLE2=Do You Love Me
TTITLE3=Guilty
TTITLE4=Perry Mason Theme
TTITLE5=Riot in Cell Block Number Nine
TTITLE6=Green Onions
TTITLE7=I Ain't Got You
TTITLE8=From the Bottom
TTITLE9=Going Back to Miami
EXTD=
EXTT0=
EXTT1=
EXTT2=
EXTT3=
EXTT4=
EXTT5=
EXTT6=
EXTT7=
EXTT8=
EXTT9=
PLAYORDER=
